<?xml version="1.0" encoding="UTF-8"?>
<svg id="Layer_1" data-name="Layer 1" xmlns="http://www.w3.org/2000/svg" xmlns:xlink="http://www.w3.org/1999/xlink" viewBox="0 0 1024 1024">
  <defs>
    <style>
      .cls-1 {
        fill: url(#linear-gradient-2);
      }

      .cls-2 {
        fill: url(#linear-gradient);
      }
    </style>
    <linearGradient id="linear-gradient" x1="252.01" y1="519.07" x2="772.59" y2="519.07" gradientUnits="userSpaceOnUse">
      <stop offset="0" stop-color="#22b573"/>
      <stop offset="1" stop-color="#0c8757"/>
    </linearGradient>
    <linearGradient id="linear-gradient-2" x1="179.46" y1="511.4" x2="812.5" y2="511.4" gradientUnits="userSpaceOnUse">
      <stop offset="0" stop-color="#22b573"/>
      <stop offset="1" stop-color="#0c8757"/>
    </linearGradient>
  </defs>
  <path class="cls-2" d="M518.72,619.98v157.34c3.76-.94,8.14-3.13,13.15-6.26,33.53-20.44,61.79-37.5,85.2-52.78l38.25,38.23c-32.27,21.52-72.61,44.78-121.89,72.46-8.14,4.38-16.28,6.26-21.29,6.26s-12.83-1.88-20.97-6.26c-177.49-100.17-239.16-142.12-239.16-256.38v-219.17l266.71,266.56ZM538.44,207.6c36.94,12.83,156.52,55.72,193.46,71.06,26.29,11.27,40.69,21.6,40.69,54.47v239.47c0,41.61-8.14,73.67-27.2,102.39l-38.66-38.66c11.32-20.7,16.09-44.35,16.09-75.31v-218.18c0-10.64-2.19-15.03-10.65-18.16-48.52-16.59-139.93-49.77-187.51-68.55-2.5-.94-4.07-1.57-5.95-1.88v194.08l-185.55-185.55c50.94-19.61,125.26-47.18,152.99-55.17,8.45-2.19,17.22-4.7,25.98-4.7s17.84,1.88,26.29,4.7Z"/>
  <path class="cls-1" d="M771.33,820.52c9.39,9.39,24.73,9.39,34.12,0,9.39-9.39,9.39-24.73,0-34.12L220.71,202.28c-9.08-9.39-24.73-9.39-34.43,0-9.08,9.08-9.08,24.73,0,34.12l585.06,584.12Z"/>
</svg>